<svg width="100" height="26" viewBox="0 0 100 26" fill="none" xmlns="http://www.w3.org/2000/svg">
<path fill-rule="evenodd" clip-rule="evenodd" d="M22.9909 25.2212H20.1493C18.2995 25.2212 17.5738 25.1551 16.781 24.6266C15.9548 24.0646 15.4923 23.4375 13.0814 19.3741C11.495 16.6321 10.6697 15.3108 9.74389 15.3108C9.41448 15.3108 9.18281 15.4764 8.75385 15.8393L8.12579 16.4348C7.89412 16.6655 7.82896 16.8312 7.82896 17.1606V18.5479C7.82896 20.5968 7.96109 21.8185 8.42262 22.5452C9.0181 23.5361 10.1738 23.4375 10.1738 24.3624C10.1738 24.9235 9.64525 25.2212 8.91855 25.2212H1.2543C0.528507 25.2212 0 24.9235 0 24.3624C0 23.404 1.28869 23.5361 1.84977 22.3805C2.21267 21.6538 2.3457 20.6954 2.3457 18.5479V5.9298C2.3457 4.74066 2.27873 4.04745 1.41991 3.51894C0.826244 3.15514 0.197285 3.08907 0.197285 2.39496C0.197285 1.99858 0.561086 1.63568 1.32127 1.63568H8.85249C9.61267 1.63568 9.97557 1.99858 9.97557 2.39496C9.97557 3.05559 9.381 3.15514 8.78643 3.51894C7.89412 4.04745 7.82896 4.84021 7.82896 6.12799V12.4375C7.82896 12.6022 7.89412 12.6683 7.99367 12.6683C8.09231 12.6683 8.15837 12.6022 8.22534 12.5361L13.2796 7.21758C14.733 5.69812 15.5249 4.70808 15.5249 3.98048C15.5249 3.2212 14.5674 3.18772 14.5674 2.42844C14.5674 1.86645 14.9964 1.63568 15.6905 1.63568H22.5946C23.2878 1.63568 23.6507 1.966 23.6507 2.39496C23.6507 3.12256 22.7267 3.25378 21.8344 3.71622C20.7448 4.27822 19.2914 5.16962 16.2851 8.17595L12.8824 11.6447C12.8163 11.7108 12.8163 11.7434 12.8163 11.7769C12.8163 11.8429 12.8824 11.909 12.9484 11.909C13.1466 11.909 13.3122 11.7434 13.7412 11.7434C15.1955 11.7434 16.4498 14.1217 18.2009 16.9298C21.1077 21.5877 22.0661 22.6773 22.7593 23.2058C23.3864 23.6683 24.048 23.8004 24.048 24.4619C24.048 24.8909 23.6851 25.2212 22.9909 25.2212Z" fill="#2A3C49"/>
<path fill-rule="evenodd" clip-rule="evenodd" d="M34.8175 16.6654C34.8175 16.5333 34.7849 16.4672 34.7189 16.4672C34.6519 16.4672 34.6193 16.4998 34.5207 16.5668C33.6619 17.0953 32.2411 17.4917 31.0845 18.3831C30.1261 19.0772 29.7967 19.87 29.7967 20.5632C29.7967 21.7197 30.6221 22.5125 31.8447 22.5125C32.8356 22.5125 33.8592 21.9179 34.3877 20.8609C34.8175 19.9686 34.8175 18.9776 34.8175 16.9957V16.6654ZM42.2827 23.3387C42.2827 23.8337 41.9198 24.2962 41.4899 24.6591C40.7632 25.2537 39.6402 25.584 38.6492 25.584C37.2284 25.584 35.8085 24.8573 35.3786 23.1071C35.346 22.9749 35.346 22.9089 35.28 22.9089C35.2474 22.9089 35.213 22.9423 35.1144 23.0745C33.7931 24.7912 31.7116 25.584 29.7307 25.584C27.1207 25.584 24.5107 24.1641 24.5107 21.1912C24.5107 19.6718 25.2709 18.1188 26.889 17.1604C28.508 16.203 30.7877 15.6084 32.3406 14.9143C33.3976 14.4193 34.8175 13.593 34.8175 12.1071C34.8175 10.9505 34.0248 10.1577 32.6709 10.1577C31.9107 10.1577 31.2166 10.3894 30.6546 10.7858C28.8392 12.0084 28.7062 13.8908 27.2863 13.8908C26.1958 13.8908 25.832 13.3623 25.832 11.8093C25.832 10.9179 25.9976 9.89348 26.4601 9.33239C27.5506 7.94506 31.0845 7.61475 32.7687 7.61475C36.1723 7.61475 40.1361 9.16678 40.1361 13.1966C40.1361 15.4102 39.9705 17.3921 39.9705 19.5396C39.9705 21.6211 39.9705 22.546 41.4573 22.6111C41.9524 22.6446 42.2827 22.8428 42.2827 23.3387Z" fill="#2A3C49"/>
<path fill-rule="evenodd" clip-rule="evenodd" d="M53.0805 23.074C55.6244 23.074 56.7475 20.4315 56.7475 17.1935C56.7475 13.627 55.2271 11.2152 53.0145 11.2152C50.1403 11.2152 49.2814 14.2541 49.2814 16.9292C49.2814 20.96 50.9005 23.074 53.0805 23.074ZM52.9149 25.5844C51.0986 25.5844 49.381 25.0894 48.1249 24.3292C47.6959 24.065 47.4643 24.0315 47.2995 24.0315C46.8371 24.0315 46.5729 24.2297 46.3747 24.693C46.1104 25.3202 45.8136 25.5844 45.3837 25.5844C44.9213 25.5844 44.4262 25.3202 44.4262 24.2632V7.15187C44.4262 6.1944 44.3919 5.50028 44.1946 4.97178C43.9964 4.44327 43.6335 4.14553 42.9719 3.88128C42.6091 3.71657 41.9475 3.55096 41.9475 2.98988C41.9475 2.49395 42.2778 2.26318 43.0706 2.06499C44.5575 1.73467 46.2416 1.23874 47.4977 0.776301C47.7946 0.677659 48.0923 0.545532 48.4235 0.545532C48.8516 0.545532 49.2814 0.776301 49.2814 1.66861V10.0587C49.2814 10.2903 49.381 10.4225 49.5131 10.4225C49.6118 10.4225 49.7104 10.3564 49.8109 10.2243C51.0317 8.70481 52.981 7.61431 55.0615 7.61431C59.257 7.61431 61.933 11.3473 61.933 15.7075C61.933 20.9265 58.4977 25.5844 52.9149 25.5844Z" fill="#2A3C49"/>
<path fill-rule="evenodd" clip-rule="evenodd" d="M72.0497 10.0588C69.8035 10.0588 68.5483 11.9747 68.5483 15.3113C68.5483 17.6236 69.3411 23.0407 72.6433 23.0407C74.9565 23.0407 76.1121 20.5629 76.1121 17.4254C76.1121 15.0471 75.4189 10.0588 72.0497 10.0588ZM81.3981 16.5005C81.3981 21.4552 77.466 25.5846 72.313 25.5846C67.028 25.5846 63.2949 22.1159 63.2949 16.6987C63.2949 11.7439 67.2596 7.6145 72.5773 7.6145C77.8632 7.6145 81.3981 11.3466 81.3981 16.5005Z" fill="#2A3C49"/>
<path fill-rule="evenodd" clip-rule="evenodd" d="M99.9943 6.378C99.9683 6.26026 99.8681 6.16404 99.751 6.14758C99.7471 6.14758 99.7406 6.14632 99.7341 6.14632C98.5463 6.06782 97.7097 6.3628 97.2088 6.53751C97.0722 6.58689 96.9187 6.64133 96.825 6.66158C96.8198 6.5679 96.8302 6.3704 96.8979 5.95641C96.9135 5.86399 96.8732 5.76524 96.7925 5.70574C96.7496 5.67409 96.7014 5.6551 96.6533 5.6513C96.6077 5.6475 96.5635 5.65637 96.5245 5.67662C95.4823 6.21088 95.1154 6.72109 94.8201 7.12621C94.6458 7.36929 94.5131 7.55033 94.275 7.69086C94.2503 7.22876 94.3843 6.79705 94.5352 6.30963C94.7694 5.54876 95.0361 4.68533 94.8344 3.41172C94.8175 3.30664 94.7369 3.22182 94.6302 3.20029C94.6159 3.19776 94.6015 3.19523 94.5885 3.19523C94.4962 3.19143 94.4129 3.23701 94.3687 3.31677C94.2568 3.51427 94.085 3.74974 93.8925 3.74468C93.7207 3.74215 93.0793 3.50794 92.0593 0.848034C91.9904 0.670791 91.9865 0.655599 91.9448 0.615086C91.8967 0.56951 91.8342 0.544189 91.7653 0.545455C91.6976 0.546721 91.6339 0.574574 91.5857 0.622683C91.5441 0.664461 91.5389 0.679653 91.4699 0.860694C90.4499 3.55478 89.8098 3.79279 89.6381 3.80292C89.4468 3.81305 89.2725 3.58516 89.1619 3.39273C89.119 3.31677 89.0318 3.27372 88.942 3.28005C88.9277 3.28132 88.9134 3.28258 88.9004 3.28638C88.795 3.31044 88.7117 3.39779 88.6948 3.50034C88.4919 4.76129 88.7599 5.60319 88.9954 6.35141C89.1463 6.8287 89.2803 7.25535 89.2543 7.71111C89.0162 7.57565 88.8874 7.39714 88.7104 7.1604C88.4164 6.76666 88.0456 6.26659 87.0061 5.76524C86.9671 5.74625 86.9215 5.73992 86.8786 5.74372C86.8291 5.74879 86.781 5.76778 86.7394 5.79943C86.6587 5.85893 86.6171 5.95641 86.6314 6.0463C86.699 6.44889 86.7108 6.64133 86.7042 6.73248C86.6119 6.71476 86.4596 6.66412 86.3217 6.61854C85.8208 6.45649 84.983 6.18683 83.7964 6.29064C83.7899 6.29191 83.7834 6.29191 83.7782 6.29317C83.6624 6.31216 83.5583 6.40458 83.5349 6.51979C83.5089 6.64006 83.5753 6.74514 83.691 6.76666C84.0033 6.84642 85.2874 8.13649 85.1352 8.83913C85.0858 9.06702 84.8256 9.21008 84.3624 9.27464C84.296 9.28351 84.2245 9.2911 84.149 9.29743C84.1451 9.29743 84.1386 9.2987 84.1334 9.2987C84.0475 9.31136 83.9682 9.3658 83.9213 9.44302C83.8732 9.52532 83.8719 9.62027 83.92 9.68863C84.5055 10.5495 85.9379 11.0775 86.8526 11.375C86.353 11.5737 85.7506 11.9269 85.3863 12.5068C85.3317 12.5929 85.333 12.6967 85.3889 12.7701C85.437 12.8309 85.5138 12.8613 85.5958 12.8524C85.6101 12.8499 85.627 12.8473 85.6439 12.8423C85.9054 12.7651 86.1097 12.7157 86.2541 12.6916C86.2007 12.7638 86.1357 12.8448 86.081 12.9144C85.7441 13.3335 85.2822 13.9133 85.346 14.4716C85.3525 14.5387 85.3902 14.5957 85.4487 14.6299C85.493 14.654 85.5424 14.6641 85.5932 14.659C85.6114 14.6577 85.6309 14.6527 85.6504 14.6476C86.3868 14.4083 87.0256 14.2235 87.3535 14.2007C87.438 14.1944 87.481 14.2007 87.5005 14.2045C87.5031 14.2767 87.4484 14.4742 87.1908 14.9882C87.1427 15.0819 87.1609 15.1895 87.2338 15.2578C87.2819 15.3022 87.347 15.3237 87.4133 15.3186C87.4471 15.3173 87.4836 15.3072 87.5161 15.2908C88.4893 14.8046 89.0969 14.2982 89.5847 13.8918C90.1793 13.3993 90.5826 13.0676 91.3216 13.0347C91.3216 13.8589 91.1148 16.0175 89.076 17.1759C88.9876 17.2265 88.9394 17.324 88.9524 17.4215C88.9641 17.5177 89.0383 17.5949 89.1359 17.6164C89.3909 17.6721 89.573 17.7684 89.6394 17.876C89.6563 17.9038 89.6654 17.9304 89.6654 17.9595C89.668 18.0443 89.7135 18.1203 89.789 18.1608C89.828 18.1823 89.8723 18.1925 89.9152 18.1925C89.9542 18.1912 89.9959 18.1811 90.0336 18.1608C90.2561 18.0418 90.8259 17.6772 91.3255 16.8518C91.911 15.8769 92.1985 14.5995 92.1777 13.041C92.9362 13.0803 93.3447 13.4234 93.9458 13.9399C94.435 14.3615 95.0413 14.8882 96.0132 15.411C96.047 15.4288 96.0808 15.4389 96.1172 15.4427C96.1823 15.449 96.2473 15.4288 96.2955 15.3844C96.3683 15.3173 96.3879 15.2072 96.3384 15.1085C96.0808 14.578 96.0249 14.3754 96.0288 14.302C96.0496 14.2982 96.0925 14.2931 96.1758 14.3007C96.5037 14.3311 97.1438 14.5337 97.8815 14.7957C97.8997 14.8021 97.9166 14.8071 97.9374 14.8097C97.9881 14.816 98.0376 14.8059 98.0805 14.7818C98.1391 14.7489 98.1768 14.6907 98.1833 14.621C98.2483 14.0463 97.7878 13.4411 97.4508 13.0056C97.3936 12.9334 97.3298 12.8486 97.2752 12.7752C97.4196 12.8005 97.6252 12.8537 97.8867 12.9372C97.9036 12.9423 97.9192 12.9448 97.9348 12.9474C98.0155 12.9575 98.0935 12.9271 98.1404 12.8651C98.1963 12.7891 98.1976 12.6828 98.143 12.5929C97.78 11.9915 97.1789 11.6256 96.6767 11.418C97.5913 11.1205 99.0264 10.5786 99.6105 9.6785C99.6574 9.60634 99.6561 9.50886 99.6079 9.42403C99.5624 9.34428 99.4817 9.28857 99.3972 9.27591C99.392 9.27591 99.3855 9.27464 99.3802 9.27464C99.3061 9.26958 99.2345 9.26072 99.1669 9.25312C98.7037 9.18855 98.4448 9.04296 98.3941 8.80875C98.2418 8.08839 99.526 6.73122 99.8369 6.64006C99.9527 6.61348 100.02 6.50207 99.9943 6.378Z" fill="#F02B2B"/>
</svg>
