<svg width="38" height="35" viewBox="0 0 38 35" fill="none" xmlns="http://www.w3.org/2000/svg">
<path fill-rule="evenodd" clip-rule="evenodd" d="M34.6341 18.9292C34.5023 18.3879 34.0959 18.008 33.625 17.9862H4.37501C3.90411 18.008 3.49768 18.3879 3.36589 18.9292L1.10064 29.7695C0.857295 30.6818 1.00638 31.679 1.49893 32.4337C1.99149 33.1884 2.76389 33.6032 3.56251 33.5417H34.4375C35.2361 33.6032 36.0085 33.1884 36.5011 32.4337C36.9936 31.679 37.1427 30.6818 36.8994 29.7695L34.6341 18.9292Z" stroke="black" stroke-width="1.5" stroke-linecap="round" stroke-linejoin="round"/>
<path d="M32.8125 14.109C32.9504 12.5334 32.5314 10.9605 31.6571 9.77098C30.7827 8.58142 29.5325 7.88345 28.2089 7.84591C27.4701 7.84546 26.7421 8.05823 26.0867 8.46619C25.4328 4.39978 22.4591 1.46082 18.9984 1.46082C15.5377 1.46082 12.564 4.39978 11.9102 8.46619C11.2579 8.05912 10.5333 7.84634 9.79766 7.84591C7.24966 7.84591 5.18753 10.2045 5.18753 14.142" stroke="black" stroke-width="1.5" stroke-linecap="round" stroke-linejoin="round"/>
<path d="M25.6161 23.8195H12.3839C11.9993 23.8195 11.6875 24.1926 11.6875 24.6529V26.8751C11.6875 27.3353 11.9993 27.7084 12.3839 27.7084H25.6161C26.0007 27.7084 26.3125 27.3353 26.3125 26.8751V24.6529C26.3125 24.1926 26.0007 23.8195 25.6161 23.8195Z" stroke="black" stroke-width="1.5" stroke-linecap="round" stroke-linejoin="round"/>
</svg>
