<svg width="24" height="24" viewBox="0 0 24 24" fill="none" xmlns="http://www.w3.org/2000/svg">
<path d="M13.8124 12.0442L22.9281 2.92851C23.4167 2.43995 23.4167 1.64852 22.9281 1.16134C22.4395 0.672783 21.6481 0.672783 21.1609 1.16134L12.0452 10.2771L2.92949 1.15988C2.44235 0.671317 1.6495 0.671317 1.16232 1.15988C0.673759 1.64843 0.673759 2.43987 1.16232 2.92705L10.278 12.0442L1.16232 21.16C0.673759 21.6485 0.673759 22.44 1.16232 22.9271C1.40518 23.1728 1.7252 23.2943 2.04517 23.2943C2.36515 23.2943 2.68517 23.1728 2.92949 22.9285L12.0452 13.8114L21.1609 22.9271C21.4053 23.1714 21.7252 23.2928 22.0452 23.2928C22.3652 23.2928 22.6852 23.1714 22.9295 22.9271C23.418 22.4385 23.418 21.647 22.9295 21.1599L13.8123 12.0442L13.8124 12.0442Z" fill="#071F16"/>
</svg>
