<svg width="16" height="16" viewBox="0 0 16 16" fill="none" xmlns="http://www.w3.org/2000/svg">
<path d="M8 16C12.4183 16 16 12.4183 16 8C16 3.58172 12.4183 0 8 0C3.58172 0 0 3.58172 0 8C0 12.4183 3.58172 16 8 16Z" fill="#2A3C49"/>
<path d="M7.68125 9.86408L5.13125 7.2233C5.04375 7.13269 5 7.02265 5 6.8932C5 6.76375 5.04375 6.65372 5.13125 6.56311L5.5625 6.13592C5.65 6.04531 5.75625 6 5.88125 6C6.00625 6 6.1125 6.04531 6.2 6.13592L8 8L9.8 6.13592C9.8875 6.04531 9.99375 6 10.1187 6C10.2437 6 10.35 6.04531 10.4375 6.13592L10.8687 6.56311C10.9562 6.65372 11 6.76375 11 6.8932C11 7.02265 10.9562 7.13269 10.8687 7.2233L8.31875 9.86408C8.23125 9.95469 8.125 10 8 10C7.875 10 7.76875 9.95469 7.68125 9.86408Z" fill="white"/>
</svg>
