<svg width="50" height="50" viewBox="0 0 50 50" fill="none" xmlns="http://www.w3.org/2000/svg">
<circle cx="25" cy="25" r="25" fill="#FBF4E4"/>
<path d="M12 29.1818C12.9205 23.8922 16.9582 19.0568 22.1986 16.9643C31.1393 13.3929 33.422 20.9406 33.4773 21.8181C35.1034 22.5238 37.2757 23.7695 37.7727 25.4999C34.2811 25.4999 32.4034 26.267 31.0227 27.3408C29.5439 28.4883 27.3409 32.6979 27.3409 37.7727" stroke="#505050" stroke-width="2" stroke-miterlimit="10" stroke-linecap="round" stroke-linejoin="round"/>
<path d="M33.4773 21.8184C33.0968 21.8184 32.4586 22.1436 32.25 22.432" stroke="#505050" stroke-width="2" stroke-miterlimit="10" stroke-linecap="round" stroke-linejoin="round"/>
<path d="M35.3176 19.9773C37.2629 17.6516 35.7901 14.7123 33.4767 15.0682C33.3663 12.9266 30.832 12.2209 29.1813 13.2273C28.6658 12.5339 27.7761 12 26.8188 12C25.1374 12 23.3026 12.9205 23.0449 15.0682" stroke="#505050" stroke-width="2" stroke-miterlimit="10" stroke-linecap="round" stroke-linejoin="round"/>
<path d="M33.4767 28.5684C33.8081 29.6668 35.8147 33.9377 33.4645 35.3122C31.6788 36.3554 29.7949 34.7047 29.7949 34.7047" stroke="#505050" stroke-width="2" stroke-miterlimit="10" stroke-linecap="round" stroke-linejoin="round"/>
</svg>
