<svg width="50" height="50" viewBox="0 0 50 50" fill="none" xmlns="http://www.w3.org/2000/svg">
<circle cx="25" cy="25" r="25" fill="#FBF4E4"/>
<path d="M30.2441 21.0688L31.3506 21.8269" stroke="#505050" stroke-width="2" stroke-miterlimit="10" stroke-linecap="round" stroke-linejoin="round"/>
<path d="M34.6447 36.5901C30.1699 29.7373 21.8805 28.3251 22.1983 25.1218C22.3817 23.2635 25.3038 23.673 25.3038 23.673C26.0313 22.8905 27.8285 21.7291 27.8836 20.1641C27.9386 18.5991 30.2004 18.7703 29.8275 17.6699C31.5392 19.0332 34.5591 22.1937 37.0044 23.4652C39.4496 24.7367 39.3396 26.1855 37.1572 26.7235C32.554 27.8605 30.4572 24.8223 28.2931 24.6878C26.6915 24.5839 25.3038 23.6669 25.3038 23.6669" stroke="#505050" stroke-width="2" stroke-miterlimit="10" stroke-linecap="round" stroke-linejoin="round"/>
<path d="M29.822 17.6699C29.3085 16.7529 28.6666 14.1182 25.8913 13.4091C22.4068 12.5165 19.0812 12.7366 14.7348 17.6699C10.0215 23.0189 12.4546 27.1698 14.2518 30.9416" stroke="#505050" stroke-width="2" stroke-miterlimit="10" stroke-linecap="round" stroke-linejoin="round"/>
</svg>
