<svg width="150" height="150" viewBox="0 0 150 150" fill="none" xmlns="http://www.w3.org/2000/svg">
<path fill-rule="evenodd" clip-rule="evenodd" d="M149.879 72.5806H77.4194V0.120968C76.6065 0.0967742 75.8177 0 75 0C33.5806 0 0 33.5758 0 75C0 116.424 33.5806 150 75 150C116.424 150 150 116.424 150 75C150 74.1823 149.908 73.3887 149.879 72.5806" fill="#138557"/>
<path fill-rule="evenodd" clip-rule="evenodd" d="M75 0V75H150C148.693 34.1319 115.863 1.30718 75 0" fill="#138557"/>
<path fill-rule="evenodd" clip-rule="evenodd" d="M55.3928 83.7405H53.1195C51.6396 83.7405 51.059 83.6876 50.4248 83.2648C49.7638 82.8152 49.3938 82.3135 47.4652 79.0628C46.196 76.8692 45.5357 75.8122 44.7951 75.8122C44.5316 75.8122 44.3462 75.9446 44.0031 76.235L43.5006 76.7113C43.3153 76.896 43.2632 77.0284 43.2632 77.292V78.4018C43.2632 80.0409 43.3689 81.0183 43.7381 81.5997C44.2145 82.3924 45.139 82.3135 45.139 83.0534C45.139 83.5023 44.7162 83.7405 44.1348 83.7405H38.0034C37.4228 83.7405 37 83.5023 37 83.0534C37 82.2867 38.031 82.3924 38.4798 81.4679C38.7701 80.8865 38.8766 80.1199 38.8766 78.4018V68.3074C38.8766 67.3561 38.823 66.8015 38.1359 66.3787C37.661 66.0876 37.1578 66.0348 37.1578 65.4795C37.1578 65.1624 37.4489 64.8721 38.057 64.8721H44.082C44.6901 64.8721 44.9805 65.1624 44.9805 65.4795C44.9805 66.008 44.5048 66.0876 44.0291 66.3787C43.3153 66.8015 43.2632 67.4357 43.2632 68.4659V73.5135C43.2632 73.6453 43.3153 73.6981 43.3949 73.6981C43.4738 73.6981 43.5267 73.6453 43.5803 73.5924L47.6237 69.3376C48.7864 68.122 49.4199 67.33 49.4199 66.7479C49.4199 66.1405 48.6539 66.1137 48.6539 65.5063C48.6539 65.0567 48.9971 64.8721 49.5524 64.8721H55.0757C55.6302 64.8721 55.9205 65.1363 55.9205 65.4795C55.9205 66.0616 55.1814 66.1665 54.4675 66.5365C53.5958 66.9861 52.4331 67.6992 50.0281 70.1043L47.3059 72.8793C47.253 72.9322 47.253 72.9582 47.253 72.985C47.253 73.0379 47.3059 73.0907 47.3587 73.0907C47.5173 73.0907 47.6498 72.9582 47.9929 72.9582C49.1564 72.9582 50.1598 74.8608 51.5607 77.1074C53.8862 80.8337 54.6528 81.7054 55.2074 82.1282C55.7091 82.4981 56.2384 82.6038 56.2384 83.1331C56.2384 83.4762 55.9481 83.7405 55.3928 83.7405" fill="white"/>
<path fill-rule="evenodd" clip-rule="evenodd" d="M64.8548 76.8957C64.8548 76.79 64.8288 76.7372 64.7759 76.7372C64.7224 76.7372 64.6963 76.7632 64.6174 76.8168C63.9303 77.2396 62.7937 77.5567 61.8684 78.2699C61.1017 78.8251 60.8382 79.4594 60.8382 80.0139C60.8382 80.9392 61.4985 81.5734 62.4766 81.5734C63.2693 81.5734 64.0882 81.0977 64.511 80.2521C64.8548 79.5383 64.8548 78.7455 64.8548 77.16V76.8957ZM70.8269 82.2345C70.8269 82.6305 70.5366 83.0004 70.1927 83.2907C69.6114 83.7664 68.7129 84.0307 67.9201 84.0307C66.7835 84.0307 65.6476 83.4493 65.3037 82.0491C65.2776 81.9434 65.2776 81.8906 65.2248 81.8906C65.1987 81.8906 65.1712 81.9174 65.0923 82.0231C64.0353 83.3964 62.3701 84.0307 60.7853 84.0307C58.6973 84.0307 56.6094 82.8947 56.6094 80.5164C56.6094 79.3009 57.2175 78.0585 58.512 77.2918C59.8072 76.5259 61.6309 76.0502 62.8733 75.4949C63.7189 75.0989 64.8548 74.4379 64.8548 73.2491C64.8548 72.3239 64.2206 71.6897 63.1375 71.6897C62.5294 71.6897 61.9741 71.875 61.5245 72.1921C60.0722 73.1702 59.9658 74.6761 58.8298 74.6761C57.9574 74.6761 57.6664 74.2533 57.6664 73.0109C57.6664 72.2978 57.7989 71.4783 58.1688 71.0294C59.0412 69.9195 61.8684 69.6553 63.2157 69.6553C65.9386 69.6553 69.1096 70.8969 69.1096 74.1208C69.1096 75.8917 68.9772 77.4772 68.9772 79.1952C68.9772 80.8603 68.9772 81.6002 70.1667 81.6524C70.5627 81.6792 70.8269 81.8377 70.8269 82.2345V82.2345Z" fill="white"/>
<path fill-rule="evenodd" clip-rule="evenodd" d="M79.465 82.0228C81.5001 82.0228 82.3986 79.9088 82.3986 77.3184C82.3986 74.4652 81.1823 72.5358 79.4121 72.5358C77.1128 72.5358 76.4257 74.9669 76.4257 77.107C76.4257 80.3316 77.7209 82.0228 79.465 82.0228M79.3325 84.0311C77.8795 84.0311 76.5054 83.6351 75.5005 83.027C75.1573 82.8156 74.972 82.7888 74.8402 82.7888C74.4703 82.7888 74.2589 82.9473 74.1003 83.318C73.8889 83.8197 73.6514 84.0311 73.3076 84.0311C72.9376 84.0311 72.5416 83.8197 72.5416 82.9741V69.2851C72.5416 68.5191 72.5141 67.9638 72.3562 67.541C72.1977 67.1182 71.9074 66.88 71.3781 66.6686C71.0878 66.5368 70.5586 66.4043 70.5586 65.9555C70.5586 65.5587 70.8228 65.3741 71.4571 65.2156C72.6466 64.9513 73.9939 64.5546 74.9988 64.1846C75.2362 64.1057 75.4744 64 75.7394 64C76.0819 64 76.4257 64.1846 76.4257 64.8985V71.6105C76.4257 71.7958 76.5054 71.9015 76.6111 71.9015C76.69 71.9015 76.7689 71.8487 76.8493 71.743C77.8259 70.5274 79.3854 69.655 81.0498 69.655C84.4062 69.655 86.547 72.6414 86.547 76.1296C86.547 80.3048 83.7988 84.0311 79.3325 84.0311" fill="white"/>
<path fill-rule="evenodd" clip-rule="evenodd" d="M94.6406 71.6107C92.8436 71.6107 91.8395 73.1434 91.8395 75.8127C91.8395 77.6625 92.4737 81.9962 95.1155 81.9962C96.966 81.9962 97.8905 80.014 97.8905 77.5039C97.8905 75.6013 97.3359 71.6107 94.6406 71.6107M102.119 76.7641C102.119 80.7279 98.9736 84.0314 94.8512 84.0314C90.6231 84.0314 87.6367 81.2564 87.6367 76.9226C87.6367 72.9588 90.8085 69.6553 95.0626 69.6553C99.2914 69.6553 102.119 72.641 102.119 76.7641" fill="white"/>
<path fill-rule="evenodd" clip-rule="evenodd" d="M116.996 68.6661C116.975 68.5719 116.895 68.4949 116.802 68.4817C116.798 68.4817 116.793 68.4807 116.788 68.4807C115.838 68.4179 115.169 68.6539 114.768 68.7937C114.659 68.8332 114.536 68.8767 114.461 68.8929C114.457 68.818 114.465 68.66 114.519 68.3288C114.532 68.2549 114.499 68.1759 114.435 68.1283C114.4 68.1029 114.362 68.0878 114.323 68.0847C114.287 68.0817 114.252 68.0888 114.22 68.105C113.387 68.5324 113.093 68.9405 112.857 69.2646C112.717 69.4591 112.611 69.6039 112.421 69.7164C112.401 69.3467 112.508 69.0013 112.629 68.6114C112.816 68.0027 113.03 67.3119 112.868 66.293C112.855 66.209 112.79 66.1411 112.705 66.1239C112.693 66.1219 112.682 66.1199 112.672 66.1199C112.598 66.1168 112.531 66.1533 112.496 66.2171C112.406 66.3751 112.269 66.5635 112.115 66.5594C111.977 66.5574 111.464 66.37 110.648 64.2421C110.593 64.1003 110.59 64.0882 110.557 64.0557C110.518 64.0193 110.468 63.999 110.413 64C110.359 64.001 110.308 64.0233 110.269 64.0618C110.236 64.0952 110.232 64.1074 110.177 64.2522C109.361 66.4075 108.849 66.5979 108.711 66.606C108.558 66.6141 108.419 66.4318 108.33 66.2779C108.296 66.2171 108.226 66.1826 108.154 66.1877C108.143 66.1887 108.132 66.1897 108.121 66.1928C108.037 66.212 107.97 66.2819 107.957 66.3639C107.794 67.3727 108.009 68.0462 108.197 68.6448C108.318 69.0266 108.425 69.3679 108.404 69.7326C108.214 69.6242 108.111 69.4814 107.969 69.292C107.734 68.977 107.437 68.5769 106.606 68.1759C106.574 68.1607 106.538 68.1556 106.504 68.1586C106.464 68.1627 106.426 68.1779 106.392 68.2032C106.328 68.2508 106.294 68.3288 106.306 68.4007C106.36 68.7228 106.369 68.8767 106.364 68.9497C106.29 68.9355 106.169 68.895 106.058 68.8585C105.657 68.7289 104.987 68.5131 104.038 68.5962C104.033 68.5972 104.028 68.5972 104.023 68.5982C103.931 68.6134 103.847 68.6873 103.829 68.7795C103.808 68.8757 103.861 68.9598 103.954 68.977C104.203 69.0408 105.231 70.0729 105.109 70.635C105.069 70.8173 104.861 70.9317 104.491 70.9834C104.438 70.9905 104.38 70.9966 104.32 71.0016C104.317 71.0016 104.312 71.0026 104.307 71.0026C104.239 71.0128 104.175 71.0563 104.138 71.1181C104.099 71.1839 104.098 71.2599 104.137 71.3146C104.605 72.0033 105.751 72.4256 106.483 72.6636C106.083 72.8227 105.601 73.1052 105.31 73.5691C105.266 73.638 105.267 73.721 105.312 73.7798C105.35 73.8284 105.412 73.8527 105.477 73.8456C105.489 73.8436 105.502 73.8415 105.516 73.8375C105.725 73.7757 105.889 73.7362 106.004 73.717C105.961 73.7747 105.909 73.8395 105.866 73.8952C105.596 74.2305 105.227 74.6943 105.278 75.141C105.283 75.1947 105.313 75.2402 105.36 75.2676C105.395 75.2868 105.435 75.2949 105.475 75.2909C105.49 75.2899 105.505 75.2858 105.521 75.2818C106.11 75.0903 106.621 74.9425 106.884 74.9242C106.951 74.9192 106.986 74.9242 107.001 74.9273C107.003 74.985 106.96 75.143 106.753 75.5542C106.715 75.6292 106.73 75.7153 106.788 75.7699C106.826 75.8054 106.878 75.8226 106.931 75.8186C106.958 75.8175 106.988 75.8094 107.014 75.7963C107.792 75.4074 108.278 75.0022 108.669 74.6771C109.144 74.2831 109.467 74.0178 110.058 73.9914C110.058 74.6508 109.893 76.3776 108.262 77.3044C108.191 77.3449 108.152 77.4229 108.163 77.5008C108.172 77.5778 108.231 77.6396 108.309 77.6568C108.513 77.7014 108.659 77.7784 108.712 77.8644C108.726 77.8867 108.733 77.908 108.733 77.9313C108.735 77.9991 108.772 78.0599 108.832 78.0923C108.863 78.1095 108.899 78.1176 108.933 78.1176C108.964 78.1166 108.997 78.1085 109.028 78.0923C109.206 77.9971 109.662 77.7054 110.061 77.0451C110.53 76.2652 110.76 75.2433 110.743 73.9965C111.35 74.0279 111.677 74.3024 112.157 74.7156C112.549 75.0529 113.034 75.4742 113.811 75.8925C113.838 75.9067 113.865 75.9148 113.895 75.9178C113.947 75.9229 113.999 75.9067 114.037 75.8712C114.095 75.8175 114.111 75.7294 114.072 75.6504C113.865 75.2261 113.821 75.064 113.824 75.0053C113.84 75.0022 113.875 74.9982 113.941 75.0043C114.204 75.0286 114.716 75.1906 115.306 75.4003C115.321 75.4053 115.334 75.4094 115.351 75.4114C115.391 75.4165 115.431 75.4084 115.465 75.3891C115.512 75.3628 115.542 75.3162 115.547 75.2605C115.599 74.8007 115.231 74.3166 114.961 73.9681C114.916 73.9104 114.865 73.8426 114.821 73.7838C114.936 73.8041 115.101 73.8466 115.31 73.9135C115.324 73.9175 115.336 73.9195 115.349 73.9216C115.413 73.9297 115.476 73.9054 115.513 73.8557C115.558 73.795 115.559 73.7099 115.515 73.638C115.225 73.1569 114.744 72.8642 114.342 72.6981C115.074 72.4601 116.222 72.0266 116.689 71.3065C116.727 71.2487 116.726 71.1708 116.687 71.1029C116.651 71.0391 116.586 70.9945 116.519 70.9844C116.514 70.9844 116.509 70.9834 116.505 70.9834C116.446 70.9793 116.388 70.9722 116.334 70.9662C115.964 70.9145 115.757 70.798 115.716 70.6107C115.594 70.0344 116.622 68.9486 116.87 68.8757C116.963 68.8545 117.017 68.7653 116.996 68.6661" fill="white"/>
</svg>
