<svg width="50" height="50" viewBox="0 0 50 50" fill="none" xmlns="http://www.w3.org/2000/svg">
<circle cx="25" cy="25" r="25" fill="#FBF4E4"/>
<path d="M33.5117 19.7406C35.2434 19.4189 37.2625 19.3231 39.0558 19.4326C39.9319 19.4873 40.4179 18.4196 39.7745 17.8241C38.2208 16.3662 36.5096 15.5723 34.1619 15.1753" stroke="#505050" stroke-width="2" stroke-miterlimit="10" stroke-linecap="round" stroke-linejoin="round"/>
<path d="M30.4319 40.37C30.4319 40.37 26.1883 27.2217 27.434 23.2724C27.523 22.978 28.6044 21.5681 29.0767 21.0205" stroke="#505050" stroke-width="2" stroke-miterlimit="10" stroke-linecap="round" stroke-linejoin="round"/>
<path d="M30.8497 11.623C32.5334 11.5478 34.1898 13.2315 34.1898 16.161C34.1898 18.5429 32.287 21.9446 32.4992 23.512C32.6361 24.525 34.4773 26.8658 33.5122 28.2553C32.862 29.193 31.1577 28.8234 30.5006 27.9815C29.296 26.4346 30.0762 22.5811 29.2275 20.8426C28.0776 18.4813 30.0968 13.8886 28.9264 12.3554C27.2631 10.172 20.0695 8.54985 16.1681 11.9858C11.9314 15.7161 12.5337 22.6564 14.5597 26.1814C15.8738 28.4674 16.4077 32.6015 15.6069 35.312" stroke="#505050" stroke-width="2" stroke-miterlimit="10" stroke-linecap="round" stroke-linejoin="round"/>
</svg>
